<svg width="16" height="18" viewBox="0 0 16 18" fill="none" xmlns="http://www.w3.org/2000/svg">
<path d="M15.3334 5.33333H12.7575C12.345 4.61833 11.7767 4.00417 11.0892 3.53667L12.5834 2.0425L11.2909 0.75L9.30169 2.73917C8.88002 2.63833 8.44919 2.58333 8.00002 2.58333C7.55085 2.58333 7.12002 2.63833 6.70752 2.73917L4.70919 0.75L3.41669 2.0425L4.90169 3.53667C4.22335 4.00417 3.65502 4.61833 3.24252 5.33333H0.666687V7.16667H2.58252C2.53669 7.46917 2.50002 7.77167 2.50002 8.08333V9H0.666687V10.8333H2.50002V11.75C2.50002 12.0617 2.53669 12.3642 2.58252 12.6667H0.666687V14.5H3.24252C4.19585 16.1408 5.96502 17.25 8.00002 17.25C10.035 17.25 11.8042 16.1408 12.7575 14.5H15.3334V12.6667H13.4175C13.4634 12.3642 13.5 12.0617 13.5 11.75V10.8333H15.3334V9H13.5V8.08333C13.5 7.77167 13.4634 7.46917 13.4175 7.16667H15.3334V5.33333ZM9.83335 12.6667H6.16669V10.8333H9.83335V12.6667ZM9.83335 9H6.16669V7.16667H9.83335V9Z" fill="black"/>
</svg>
