<svg width="20" height="20" viewBox="0 0 20 20" fill="none" xmlns="http://www.w3.org/2000/svg">
<g clip-path="url(#clip0_24_2416)">
<path d="M19.2449 8.26129L11.087 8.26089C10.7268 8.26089 10.4348 8.55285 10.4348 8.91308V11.5191C10.4348 11.8793 10.7268 12.1713 11.087 12.1713H15.681C15.1779 13.4768 14.239 14.5702 13.0411 15.2648L15 18.6558C18.1423 16.8385 20 13.6499 20 10.0804C20 9.57218 19.9625 9.20886 19.8876 8.79976C19.8307 8.48894 19.5608 8.26129 19.2449 8.26129Z" fill="#167EE6"/>
<path d="M10.0001 16.0869C7.75185 16.0869 5.7892 14.8586 4.7351 13.0409L1.34424 14.9953C3.06982 17.9861 6.3024 20 10.0001 20C11.814 20 13.5256 19.5116 15.0001 18.6605V18.6558L13.0412 15.2648C12.1452 15.7845 11.1083 16.0869 10.0001 16.0869Z" fill="#12B347"/>
<path d="M15 18.6605V18.6558L13.0411 15.2648C12.1451 15.7844 11.1083 16.0869 10 16.0869V20C11.8139 20 13.5256 19.5116 15 18.6605Z" fill="#0F993E"/>
<path d="M3.91305 10C3.91305 8.89184 4.21547 7.85508 4.73504 6.95911L1.34418 5.00465C0.488359 6.47446 0 8.18141 0 10C0 11.8186 0.488359 13.5256 1.34418 14.9954L4.73504 13.0409C4.21547 12.1449 3.91305 11.1082 3.91305 10Z" fill="#FFD500"/>
<path d="M10.0001 3.91305C11.4661 3.91305 12.8128 4.43398 13.8646 5.30051C14.1241 5.51426 14.5012 5.49883 14.7389 5.26113L16.5854 3.41465C16.8551 3.14496 16.8359 2.70352 16.5478 2.45359C14.7855 0.924726 12.4925 0 10.0001 0C6.3024 0 3.06982 2.01395 1.34424 5.00465L4.7351 6.9591C5.7892 5.14141 7.75186 3.91305 10.0001 3.91305Z" fill="#FF4B26"/>
<path d="M13.8645 5.30051C14.124 5.51426 14.5012 5.49883 14.7389 5.26113L16.5854 3.41465C16.855 3.14496 16.8358 2.70352 16.5477 2.45359C14.7854 0.924688 12.4925 0 10 0V3.91305C11.466 3.91305 12.8127 4.43398 13.8645 5.30051Z" fill="#D93F21"/>
</g>
<defs>
<clipPath id="clip0_24_2416">
<rect width="20" height="20" fill="white"/>
</clipPath>
</defs>
</svg>
