<svg width="26" height="26" viewBox="0 0 26 26" fill="none" xmlns="http://www.w3.org/2000/svg">
<circle cx="13" cy="13" r="13" fill="#FFB661"/>
<path d="M8.04471 13C8.04471 11.9539 8.89506 11.1035 9.94118 11.1035H12.3882V9.94116H9.94118C8.25271 9.94116 6.88235 11.3115 6.88235 13C6.88235 14.6885 8.25271 16.0588 9.94118 16.0588H12.3882V14.8965H9.94118C8.89506 14.8965 8.04471 14.0461 8.04471 13ZM10.5529 13.6118H15.4471V12.3882H10.5529V13.6118ZM16.0588 9.94116H13.6118V11.1035H16.0588C17.1049 11.1035 17.9553 11.9539 17.9553 13C17.9553 14.0461 17.1049 14.8965 16.0588 14.8965H13.6118V16.0588H16.0588C17.7473 16.0588 19.1176 14.6885 19.1176 13C19.1176 11.3115 17.7473 9.94116 16.0588 9.94116Z" fill="white"/>
</svg>
