<svg width="296" height="337" viewBox="0 0 296 337" fill="none" xmlns="http://www.w3.org/2000/svg">
<path opacity="0.05" d="M270.35 43.5174H210.28C209.257 43.5174 208.427 44.3469 208.427 45.37V86.8451C208.427 87.8683 209.257 88.6977 210.28 88.6977H270.35C271.373 88.6977 272.203 87.8683 272.203 86.8451V45.37C272.203 44.3469 271.373 43.5174 270.35 43.5174Z" fill="#292A2E"/>
<path opacity="0.05" d="M235.285 57.2249C237.834 57.2249 239.9 55.1588 239.9 52.6102C239.9 50.0616 237.834 47.9956 235.285 47.9956C232.736 47.9956 230.67 50.0616 230.67 52.6102C230.67 55.1588 232.736 57.2249 235.285 57.2249Z" fill="#292A2E"/>
<path opacity="0.05" d="M237.025 73.7293L250.402 58.8057C251.237 57.874 252.406 57.3091 253.655 57.2335C254.904 57.158 256.133 57.5779 257.074 58.4022L272.203 71.6481V86.8519C272.203 87.3415 272.008 87.8109 271.662 88.1571C271.316 88.5032 270.846 88.6977 270.357 88.6977H253.915" fill="#292A2E"/>
<path opacity="0.1" d="M253.915 88.6977L224.908 62.9912C224.051 62.2315 222.949 61.8069 221.803 61.7953C220.658 61.7838 219.547 62.1862 218.675 62.9285L208.428 71.6481V87.0285C208.428 87.2478 208.471 87.4648 208.555 87.6674C208.639 87.8699 208.762 88.054 208.917 88.209C209.072 88.364 209.256 88.4869 209.459 88.5708C209.661 88.6546 209.879 88.6978 210.098 88.6977H253.915Z" fill="#292A2E"/>
<path opacity="0.05" d="M115.414 46.1276H61.3836C60.4634 46.1276 59.7174 46.8736 59.7174 47.7938V85.0987C59.7174 86.0189 60.4634 86.7649 61.3836 86.7649H115.414C116.334 86.7649 117.08 86.0189 117.08 85.0987V47.7938C117.08 46.8736 116.334 46.1276 115.414 46.1276Z" fill="#292A2E"/>
<path opacity="0.05" d="M83.8742 58.4564C86.1664 58.4564 88.0247 56.5981 88.0247 54.3058C88.0247 52.0136 86.1664 50.1553 83.8742 50.1553C81.5819 50.1553 79.7236 52.0136 79.7236 54.3058C79.7236 56.5981 81.5819 58.4564 83.8742 58.4564Z" fill="#292A2E"/>
<path opacity="0.05" d="M85.4392 73.3015L97.4715 59.8786C98.2226 59.0405 99.2739 58.5324 100.397 58.4644C101.521 58.3965 102.625 58.7741 103.472 59.5156L117.08 71.4297V85.103C117.08 85.5433 116.905 85.9656 116.593 86.2769C116.282 86.5883 115.86 86.7632 115.419 86.7632H100.631" fill="#292A2E"/>
<path opacity="0.1" d="M100.631 86.7666L74.5403 63.6465C73.7693 62.9631 72.7775 62.5812 71.7474 62.5708C70.7172 62.5605 69.718 62.9225 68.9334 63.5901L59.7195 71.4331V85.2668C59.7195 85.665 59.8777 86.0469 60.1593 86.3285C60.4409 86.6101 60.8228 86.7683 61.221 86.7683L100.631 86.7666Z" fill="#292A2E"/>
<path d="M44.7435 47.5622C41.6746 47.5406 38.7221 46.3852 36.4536 44.3182C34.1852 42.2512 32.761 39.4185 32.455 36.3648C32.1489 33.3112 32.9827 30.2522 34.7958 27.7761C36.6089 25.3001 39.2735 23.5817 42.277 22.9516C41.4767 18.4058 42.3431 13.7238 44.717 9.76542C46.4399 6.85379 48.9079 4.45413 51.8667 2.81368C54.8255 1.17322 58.1682 0.351289 61.5504 0.432555C64.9326 0.51382 68.232 1.49535 71.1086 3.27601C73.9853 5.05668 76.3352 7.57209 77.9162 10.5631C79.7759 9.28552 82.0276 8.70721 84.2728 8.93057C86.5179 9.15394 88.6116 10.1646 90.1831 11.7835C91.7054 13.3495 92.657 15.3817 92.885 17.5538C95.7328 17.7463 98.467 18.7451 100.768 20.4334C103.07 22.1217 104.844 24.4299 105.882 27.0884C106.921 29.747 107.182 32.6462 106.635 35.4475C106.088 38.2489 104.755 40.8368 102.793 42.9091C101.447 44.3378 99.8296 45.4843 98.0361 46.2818C96.2425 47.0794 94.3082 47.512 92.3458 47.5545L44.7435 47.5622Z" fill="#292A2E"/>
<path d="M41.1944 47.5622C38.1255 47.5406 35.173 46.3852 32.9045 44.3182C30.6361 42.2512 29.2119 39.4185 28.9059 36.3648C28.5999 33.3112 29.4336 30.2522 31.2467 27.7761C33.0599 25.3001 35.7244 23.5817 38.728 22.9516C37.9275 18.4058 38.7937 13.7239 41.1675 9.76541C42.8904 6.85379 45.3585 4.45416 48.3173 2.81372C51.2762 1.17328 54.6189 0.351351 58.0011 0.432616C61.3834 0.51388 64.6828 1.4954 67.5594 3.27605C70.4361 5.0567 72.786 7.5721 74.3671 10.5631C76.2268 9.28551 78.4786 8.7072 80.7237 8.93057C82.9689 9.15394 85.0625 10.1646 86.634 11.7835C88.1562 13.3496 89.1078 15.3818 89.3359 17.5537C92.1837 17.7463 94.918 18.7451 97.2194 20.4334C99.5209 22.1217 101.295 24.4299 102.333 27.0884C103.372 29.747 103.633 32.6462 103.086 35.4475C102.539 38.2489 101.206 40.8368 99.2435 42.9091C97.8974 44.3377 96.2805 45.4842 94.487 46.2817C92.6934 47.0793 90.7591 47.5119 88.7967 47.5545L41.1944 47.5622Z" fill="white"/>
<path d="M41.1944 47.9887C37.7975 47.9732 34.5455 46.6108 32.1518 44.2005C29.7581 41.7902 28.4183 38.5288 28.4263 35.1319C28.3906 32.2401 29.3444 29.423 31.1296 27.1477C32.9148 24.8724 35.424 23.2757 38.2412 22.6223C37.551 18.0994 38.4558 13.4774 40.8007 9.54872C42.5415 6.60561 45.0274 4.17341 48.0078 2.49726C50.9883 0.821102 54.3579 -0.0397692 57.777 0.00141099C61.1962 0.0425912 64.5441 0.984367 67.4833 2.73182C70.4225 4.47927 72.8491 6.97064 74.5185 9.95482C76.4536 8.75641 78.7401 8.25513 80.9991 8.53403C83.258 8.81293 85.3539 9.85527 86.9394 11.4883C88.4424 13.0349 89.4147 15.0194 89.7156 17.1549C92.609 17.4173 95.3701 18.4891 97.6829 20.2475C99.9956 22.006 101.767 24.38 102.793 27.0979C103.82 29.8159 104.06 32.7679 103.487 35.6162C102.914 38.4645 101.551 41.0939 99.5531 43.2035C98.1682 44.6728 96.5048 45.852 94.6597 46.6722C92.8146 47.4924 90.8248 47.9373 88.8061 47.9811L41.1944 47.9887ZM57.5483 0.855202C54.8156 0.869337 52.1189 1.47969 49.6464 2.64367C47.1739 3.80764 44.9853 5.49719 43.2332 7.59438C41.4812 9.69156 40.2079 12.1459 39.5024 14.7859C38.7968 17.426 38.6759 20.1883 39.1481 22.8799L39.2194 23.2894L38.812 23.3713C36.0994 23.9092 33.6608 25.3799 31.9195 27.5282C30.1782 29.6765 29.2441 32.3667 29.2794 35.1319C29.2712 38.3026 30.5211 41.3471 32.7548 43.5975C34.9885 45.8478 38.0237 47.1203 41.1944 47.1356L88.7967 47.1296C90.7013 47.087 92.5784 46.6661 94.3188 45.8913C96.0591 45.1165 97.628 44.0033 98.9342 42.6165C100.841 40.603 102.136 38.0887 102.667 35.3671C103.199 32.6454 102.945 29.8287 101.936 27.2457C100.927 24.6628 99.2043 22.4201 96.9686 20.7795C94.7328 19.1389 92.0766 18.1681 89.3099 17.9803L88.949 17.959L88.9115 17.5994C88.6929 15.523 87.7833 13.5802 86.3286 12.0826C84.8274 10.5357 82.8273 9.57 80.6824 9.35639C78.5375 9.14278 76.3862 9.69507 74.6094 10.9155L74.2153 11.1872L73.9904 10.7649C72.4084 7.77539 70.0419 5.27334 67.1451 3.52742C64.2483 1.78151 60.9305 0.857699 57.5483 0.855202Z" fill="#292A2E"/>
<path d="M66.3591 40.6543C66.2459 40.6543 66.1374 40.6093 66.0574 40.5293C65.9774 40.4493 65.9325 40.3408 65.9325 40.2277V15.4512C65.9325 15.338 65.9774 15.2295 66.0574 15.1496C66.1374 15.0696 66.2459 15.0246 66.3591 15.0246C66.4722 15.0246 66.5807 15.0696 66.6607 15.1496C66.7407 15.2295 66.7856 15.338 66.7856 15.4512V40.2277C66.7856 40.3408 66.7407 40.4493 66.6607 40.5293C66.5807 40.6093 66.4722 40.6543 66.3591 40.6543Z" fill="#292A2E"/>
<path d="M75.7164 25.2346C75.6603 25.2347 75.6048 25.2238 75.553 25.2023C75.5013 25.1809 75.4543 25.1494 75.4148 25.1096L66.3591 16.0544L57.3038 25.1096C57.2234 25.1873 57.1156 25.2303 57.0038 25.2293C56.892 25.2284 56.785 25.1835 56.7059 25.1044C56.6268 25.0253 56.5819 24.9183 56.5809 24.8065C56.58 24.6946 56.623 24.5869 56.7007 24.5064L66.0571 15.1496C66.1387 15.0726 66.2467 15.0297 66.3589 15.0297C66.4711 15.0297 66.5791 15.0726 66.6607 15.1496L76.0175 24.5064C76.0772 24.5661 76.1178 24.6421 76.1342 24.7248C76.1507 24.8076 76.1422 24.8933 76.11 24.9713C76.0777 25.0492 76.023 25.1158 75.9529 25.1627C75.8827 25.2095 75.8003 25.2346 75.7159 25.2346H75.7164Z" fill="#292A2E"/>
<path opacity="0.05" d="M292.391 151.76H199.248C197.662 151.76 196.376 153.046 196.376 154.632V218.943C196.376 220.53 197.662 221.816 199.248 221.816H292.391C293.978 221.816 295.264 220.53 295.264 218.943V154.632C295.264 153.046 293.978 151.76 292.391 151.76Z" fill="#292A2E"/>
<path opacity="0.05" d="M238.02 173.015C241.972 173.015 245.175 169.811 245.175 165.859C245.175 161.908 241.972 158.704 238.02 158.704C234.068 158.704 230.865 161.908 230.865 165.859C230.865 169.811 234.068 173.015 238.02 173.015Z" fill="#292A2E"/>
<path opacity="0.05" d="M240.718 198.606L261.461 175.466C262.756 174.021 264.568 173.145 266.505 173.028C268.441 172.911 270.346 173.562 271.806 174.84L295.264 195.379V218.954C295.264 219.713 294.962 220.441 294.425 220.977C293.889 221.514 293.161 221.816 292.402 221.816H266.908" fill="#292A2E"/>
<path opacity="0.1" d="M266.908 221.816L221.929 181.956C220.6 180.778 218.89 180.119 217.115 180.101C215.339 180.083 213.616 180.707 212.263 181.858L196.376 195.381V219.229C196.376 219.569 196.443 219.905 196.573 220.219C196.703 220.533 196.893 220.819 197.134 221.059C197.374 221.3 197.659 221.49 197.973 221.62C198.287 221.75 198.624 221.817 198.964 221.817L266.908 221.816Z" fill="#292A2E"/>
<path opacity="0.05" d="M110.237 212.629H15.6402C14.029 212.629 12.7229 213.935 12.7229 215.546V280.86C12.7229 282.471 14.029 283.777 15.6402 283.777H110.237C111.848 283.777 113.154 282.471 113.154 280.86V215.546C113.154 213.935 111.848 212.629 110.237 212.629Z" fill="#292A2E"/>
<path opacity="0.05" d="M55.0171 234.215C59.0306 234.215 62.2841 230.961 62.2841 226.948C62.2841 222.934 59.0306 219.681 55.0171 219.681C51.0036 219.681 47.75 222.934 47.75 226.948C47.75 230.961 51.0036 234.215 55.0171 234.215Z" fill="#292A2E"/>
<path opacity="0.05" d="M57.7577 260.206L78.8248 236.702C80.14 235.235 81.9805 234.345 83.9471 234.226C85.9137 234.107 87.848 234.769 89.3303 236.066L113.155 256.926V280.868C113.155 281.25 113.08 281.628 112.934 281.981C112.787 282.333 112.573 282.654 112.303 282.924C112.034 283.194 111.713 283.408 111.36 283.554C111.008 283.7 110.63 283.775 110.248 283.775H84.3552" fill="#292A2E"/>
<path opacity="0.1" d="M84.3553 283.777L38.6751 243.296C37.3252 242.099 35.5887 241.431 33.7851 241.412C31.9815 241.394 30.232 242.028 28.8584 243.197L12.7229 256.926V281.147C12.7229 281.844 12.9998 282.512 13.4928 283.005C13.9857 283.498 14.6543 283.775 15.3514 283.775L84.3553 283.777Z" fill="#292A2E"/>
<path d="M256.395 285.975C256.292 285.975 256.194 285.934 256.121 285.862C255.575 285.316 254.686 275.302 252.289 245.486C251.308 233.286 250.382 221.762 249.706 214.759C249.658 214.259 249.464 214.2 249.4 214.181C248.475 213.902 245.662 216.121 244.09 218.063C244.025 218.14 243.932 218.188 243.831 218.198C243.73 218.207 243.63 218.177 243.551 218.113C243.473 218.05 243.422 217.958 243.41 217.857C243.398 217.757 243.426 217.656 243.488 217.575C244.527 216.291 247.913 212.923 249.623 213.438C249.968 213.541 250.396 213.841 250.477 214.683C251.153 221.692 252.079 233.219 253.06 245.422C254.517 263.541 256.166 284.067 256.708 285.36C256.75 285.418 256.775 285.486 256.78 285.557C256.785 285.628 256.771 285.699 256.738 285.763C256.706 285.826 256.656 285.879 256.595 285.917C256.535 285.954 256.465 285.973 256.394 285.974L256.395 285.975Z" fill="#494949"/>
<path d="M248.711 227.611C255.139 222.458 257.27 214.438 253.47 209.697C249.67 204.956 241.378 205.29 234.949 210.443C228.521 215.596 226.39 223.617 230.19 228.357C233.991 233.098 242.282 232.764 248.711 227.611Z" fill="#0CBC8B"/>
<path opacity="0.2" d="M248.711 227.611C255.139 222.458 257.27 214.438 253.47 209.697C249.67 204.956 241.378 205.29 234.949 210.443C228.521 215.596 226.39 223.617 230.19 228.357C233.991 233.098 242.282 232.764 248.711 227.611Z" fill="white"/>
<path d="M231.992 229.563C231.956 229.563 231.92 229.552 231.889 229.532C231.858 229.513 231.833 229.485 231.817 229.451C231.802 229.418 231.796 229.381 231.8 229.344C231.805 229.308 231.82 229.274 231.843 229.245L250.164 207.152C250.197 207.113 250.244 207.088 250.295 207.083C250.347 207.078 250.398 207.094 250.437 207.127C250.477 207.159 250.502 207.207 250.507 207.258C250.511 207.309 250.496 207.36 250.463 207.4L232.14 229.493C232.122 229.515 232.099 229.532 232.074 229.544C232.048 229.556 232.021 229.563 231.992 229.563Z" fill="white"/>
<path d="M260.391 281.24C260.347 281.24 260.304 281.233 260.263 281.219C260.166 281.185 260.086 281.114 260.042 281.021C259.997 280.929 259.991 280.822 260.024 280.725L266.905 260.936C267.108 260.354 267.453 259.833 267.909 259.419C268.366 259.006 268.918 258.713 269.517 258.569C270.116 258.425 270.741 258.433 271.335 258.593C271.93 258.753 272.475 259.06 272.92 259.485L276.558 262.96C276.595 262.996 276.625 263.038 276.645 263.084C276.666 263.131 276.677 263.181 276.678 263.232C276.679 263.283 276.67 263.333 276.652 263.381C276.633 263.428 276.606 263.471 276.571 263.508C276.536 263.545 276.494 263.574 276.447 263.595C276.4 263.616 276.35 263.627 276.299 263.628C276.249 263.629 276.198 263.62 276.151 263.602C276.103 263.583 276.06 263.556 276.023 263.521L272.385 260.045C272.033 259.709 271.603 259.467 271.133 259.341C270.664 259.215 270.17 259.208 269.698 259.322C269.225 259.436 268.789 259.667 268.428 259.994C268.068 260.32 267.796 260.732 267.636 261.191L260.754 280.984C260.727 281.059 260.678 281.124 260.613 281.17C260.548 281.215 260.47 281.24 260.391 281.24Z" fill="#494949"/>
<path d="M286.725 273.915C291.489 270.144 291.206 261.851 286.093 255.391C280.98 248.931 272.972 246.751 268.208 250.522C263.444 254.292 263.727 262.586 268.841 269.046C273.954 275.506 281.961 277.686 286.725 273.915Z" fill="#0CBC8B"/>
<path d="M253.269 284.714C253.181 284.714 253.097 284.685 253.029 284.63C252.96 284.576 252.912 284.501 252.892 284.416L241.344 236.128C241.265 235.799 241.097 235.498 240.858 235.258C240.619 235.018 240.319 234.848 239.99 234.768C239.661 234.688 239.316 234.7 238.994 234.803C238.671 234.906 238.384 235.096 238.162 235.352L234.602 239.465C234.535 239.543 234.44 239.591 234.337 239.598C234.235 239.606 234.133 239.572 234.056 239.505C233.978 239.438 233.93 239.343 233.923 239.24C233.915 239.138 233.949 239.036 234.016 238.959L237.576 234.845C237.891 234.481 238.3 234.211 238.758 234.064C239.216 233.918 239.706 233.901 240.174 234.015C240.641 234.129 241.068 234.37 241.407 234.711C241.747 235.052 241.986 235.48 242.098 235.948L253.646 284.236C253.66 284.293 253.66 284.352 253.648 284.409C253.635 284.466 253.61 284.52 253.573 284.566C253.537 284.612 253.491 284.649 253.438 284.674C253.385 284.7 253.328 284.713 253.269 284.713L253.269 284.714Z" fill="#494949"/>
<path d="M249.009 250.196C250.413 242.078 246.697 234.657 240.71 233.622C234.723 232.587 228.732 238.328 227.328 246.447C225.924 254.565 229.639 261.985 235.626 263.021C241.613 264.056 247.605 258.314 249.009 250.196Z" fill="#0CBC8B"/>
<path d="M256.396 285.975C256.38 285.975 256.364 285.974 256.348 285.972C256.246 285.96 256.153 285.907 256.09 285.826C256.027 285.745 255.998 285.643 256.01 285.541L263.385 225.665C263.466 225.013 263.733 224.398 264.155 223.894C264.576 223.39 265.134 223.019 265.762 222.824C266.39 222.63 267.06 222.621 267.693 222.798C268.325 222.976 268.893 223.332 269.328 223.824L277.757 233.371C277.793 233.408 277.82 233.453 277.838 233.502C277.856 233.55 277.864 233.602 277.861 233.654C277.859 233.706 277.846 233.756 277.823 233.803C277.801 233.85 277.769 233.891 277.73 233.926C277.692 233.96 277.646 233.986 277.597 234.002C277.548 234.019 277.496 234.025 277.444 234.021C277.393 234.017 277.342 234.003 277.296 233.979C277.25 233.955 277.21 233.922 277.176 233.882L268.747 224.336C268.411 223.955 267.972 223.68 267.483 223.542C266.994 223.405 266.476 223.412 265.991 223.562C265.506 223.713 265.074 224 264.748 224.389C264.423 224.779 264.216 225.254 264.154 225.758L256.78 285.636C256.768 285.73 256.722 285.816 256.652 285.878C256.581 285.941 256.49 285.975 256.396 285.975Z" fill="#494949"/>
<path d="M286.403 238.677C289.343 233.36 285.883 225.818 278.674 221.83C271.464 217.842 263.236 218.919 260.295 224.236C257.354 229.552 260.815 237.095 268.024 241.083C275.233 245.071 283.462 243.994 286.403 238.677Z" fill="#0CBC8B"/>
<path opacity="0.2" d="M286.725 273.915C291.489 270.144 291.206 261.851 286.093 255.391C280.98 248.931 272.972 246.751 268.208 250.522C263.444 254.292 263.727 262.586 268.841 269.046C273.954 275.506 281.961 277.686 286.725 273.915Z" fill="white"/>
<path opacity="0.5" d="M249.009 250.196C250.413 242.078 246.697 234.657 240.71 233.622C234.723 232.587 228.732 238.328 227.328 246.447C225.924 254.565 229.639 261.985 235.626 263.021C241.613 264.056 247.605 258.314 249.009 250.196Z" fill="white"/>
<path opacity="0.5" d="M286.403 238.677C289.343 233.36 285.883 225.818 278.674 221.83C271.464 217.842 263.236 218.919 260.295 224.236C257.354 229.552 260.815 237.095 268.024 241.083C275.233 245.071 283.462 243.994 286.403 238.677Z" fill="white"/>
<path d="M265.828 336.781H246.962L243.837 276.422H268.953L265.828 336.781Z" fill="#292A2E"/>
<path opacity="0.3" d="M265.828 336.781H246.962L243.837 276.422H268.953L265.828 336.781Z" fill="white"/>
<path d="M286.726 274.107C286.696 274.107 286.668 274.101 286.641 274.088C286.615 274.075 286.592 274.056 286.574 274.033L268.057 250.64C268.041 250.62 268.03 250.597 268.023 250.573C268.016 250.548 268.014 250.522 268.017 250.497C268.02 250.472 268.027 250.448 268.04 250.425C268.052 250.403 268.069 250.383 268.089 250.368C268.109 250.352 268.132 250.34 268.156 250.333C268.181 250.326 268.206 250.324 268.231 250.327C268.257 250.33 268.281 250.338 268.303 250.35C268.326 250.363 268.345 250.379 268.361 250.399L286.878 273.793C286.901 273.821 286.915 273.856 286.919 273.892C286.924 273.928 286.917 273.965 286.901 273.998C286.886 274.031 286.861 274.058 286.83 274.078C286.799 274.097 286.763 274.107 286.727 274.107H286.726Z" fill="white"/>
<path d="M285.171 240.551C285.13 240.551 285.09 240.538 285.057 240.514L261.36 223.212C261.34 223.197 261.322 223.178 261.309 223.156C261.296 223.134 261.287 223.11 261.283 223.085C261.279 223.06 261.28 223.034 261.286 223.01C261.292 222.985 261.303 222.962 261.318 222.941C261.333 222.921 261.352 222.903 261.374 222.89C261.395 222.877 261.42 222.868 261.445 222.864C261.47 222.86 261.496 222.861 261.52 222.867C261.545 222.873 261.568 222.884 261.589 222.899L285.285 240.201C285.318 240.225 285.342 240.259 285.355 240.298C285.368 240.337 285.368 240.379 285.355 240.418C285.342 240.457 285.317 240.491 285.284 240.515C285.251 240.539 285.211 240.552 285.17 240.551H285.171Z" fill="white"/>
<path d="M234.664 262.77C234.647 262.77 234.63 262.768 234.614 262.763C234.564 262.75 234.522 262.718 234.496 262.673C234.47 262.629 234.463 262.576 234.477 262.526L242.02 234.264C242.026 234.239 242.037 234.215 242.052 234.195C242.067 234.174 242.087 234.156 242.109 234.143C242.131 234.13 242.156 234.121 242.181 234.117C242.207 234.114 242.233 234.115 242.258 234.122C242.283 234.129 242.306 234.14 242.327 234.156C242.347 234.172 242.364 234.192 242.377 234.214C242.39 234.237 242.398 234.262 242.401 234.288C242.403 234.313 242.401 234.339 242.394 234.364L234.851 262.626C234.84 262.667 234.816 262.704 234.782 262.73C234.748 262.756 234.707 262.77 234.664 262.77Z" fill="white"/>
<path d="M213.916 20.152H105.558C96.5938 20.152 89.3269 27.4189 89.3269 36.383V291.107C89.3269 300.072 96.5938 307.338 105.558 307.338H213.916C222.88 307.338 230.147 300.072 230.147 291.107V36.383C230.147 27.4189 222.88 20.152 213.916 20.152Z" fill="#292A2E"/>
<path d="M213.865 25.2201H105.609C99.4535 25.2201 94.4637 30.2099 94.4637 36.3651V290.746C94.4637 296.901 99.4535 301.891 105.609 301.891H213.865C220.02 301.891 225.01 296.901 225.01 290.746V36.3651C225.01 30.2099 220.02 25.2201 213.865 25.2201Z" fill="white"/>
<path d="M133 23.1248H186.474V28.6578C186.473 30.2445 185.843 31.7659 184.721 32.8877C183.599 34.0095 182.077 34.6396 180.49 34.6396H138.985C137.398 34.6396 135.876 34.0092 134.754 32.8871C133.632 31.765 133.001 30.243 133.001 28.6561V23.1248H133Z" fill="#292A2E"/>
<path d="M180.509 77.4405H138.965C133.638 77.4405 129.319 81.7594 129.319 87.087V128.63C129.319 133.958 133.638 138.277 138.965 138.277H180.509C185.836 138.277 190.155 133.958 190.155 128.63V87.087C190.155 81.7594 185.836 77.4405 180.509 77.4405Z" fill="white"/>
<path d="M180.508 138.703H138.965C136.295 138.7 133.734 137.638 131.846 135.75C129.957 133.861 128.895 131.301 128.892 128.63V87.087C128.895 84.4164 129.958 81.856 131.846 79.9676C133.734 78.0792 136.295 77.017 138.965 77.0139H180.508C183.179 77.017 185.739 78.0792 187.628 79.9676C189.516 81.856 190.578 84.4164 190.581 87.087V128.63C190.578 131.301 189.516 133.861 187.628 135.75C185.739 137.638 183.179 138.7 180.508 138.703ZM138.965 77.8671C136.521 77.8699 134.177 78.8422 132.449 80.5706C130.72 82.2991 129.748 84.6426 129.745 87.087V128.63C129.748 131.075 130.72 133.418 132.449 135.147C134.177 136.875 136.521 137.847 138.965 137.85H180.508C182.953 137.847 185.296 136.875 187.025 135.147C188.753 133.418 189.725 131.075 189.728 128.63V87.087C189.725 84.6425 188.753 82.299 187.025 80.5705C185.296 78.842 182.953 77.8698 180.508 77.8671H138.965Z" fill="#292A2E"/>
<path opacity="0.6" d="M177.747 188.038V195.989H118.995C117.941 195.989 116.929 195.57 116.184 194.824C115.438 194.079 115.019 193.068 115.019 192.013C115.019 190.959 115.438 189.948 116.184 189.202C116.929 188.456 117.941 188.038 118.995 188.038H177.747Z" fill="#0095FF"/>
<path d="M200.478 196.416H118.996C118.414 196.422 117.837 196.312 117.298 196.094C116.759 195.875 116.268 195.552 115.855 195.142C115.441 194.733 115.113 194.245 114.889 193.708C114.665 193.171 114.55 192.595 114.55 192.013C114.55 191.432 114.665 190.855 114.889 190.318C115.113 189.781 115.441 189.294 115.855 188.885C116.268 188.475 116.759 188.152 117.298 187.933C117.837 187.714 118.414 187.605 118.996 187.611H200.478C201.638 187.622 202.747 188.091 203.563 188.915C204.379 189.74 204.837 190.853 204.837 192.013C204.837 193.174 204.379 194.287 203.563 195.111C202.747 195.936 201.638 196.405 200.478 196.416ZM118.996 188.464C118.527 188.459 118.061 188.547 117.626 188.723C117.191 188.899 116.795 189.159 116.461 189.49C116.127 189.82 115.862 190.213 115.681 190.646C115.5 191.079 115.407 191.544 115.407 192.013C115.407 192.483 115.5 192.948 115.681 193.381C115.862 193.814 116.127 194.207 116.461 194.537C116.795 194.867 117.191 195.128 117.626 195.304C118.061 195.48 118.527 195.568 118.996 195.563H200.478C201.412 195.553 202.305 195.174 202.963 194.51C203.62 193.845 203.989 192.948 203.989 192.013C203.989 191.079 203.62 190.182 202.963 189.517C202.305 188.852 201.412 188.474 200.478 188.464H118.996Z" fill="#292A2E"/>
<path opacity="0.8" d="M188.221 223.105H131.253C127.896 223.105 125.175 225.826 125.175 229.183V245.503C125.175 248.86 127.896 251.581 131.253 251.581H188.221C191.578 251.581 194.299 248.86 194.299 245.503V229.183C194.299 225.826 191.578 223.105 188.221 223.105Z" fill="#0095FF"/>
<path d="M194.298 245.504V248.301C194.298 249.912 193.657 251.458 192.518 252.598C191.378 253.737 189.832 254.377 188.221 254.377H131.252C129.641 254.377 128.095 253.737 126.955 252.598C125.816 251.458 125.176 249.912 125.176 248.301V245.504C125.176 247.116 125.816 248.661 126.955 249.801C128.095 250.941 129.641 251.581 131.252 251.581H188.221C189.832 251.581 191.378 250.94 192.518 249.801C193.657 248.661 194.297 247.116 194.298 245.504Z" fill="#0094FD"/>
<path d="M155.939 245.755C155.701 245.755 155.47 245.67 155.289 245.515L148.769 239.927C148.669 239.842 148.587 239.737 148.528 239.62C148.469 239.504 148.433 239.376 148.423 239.245C148.413 239.114 148.428 238.983 148.469 238.858C148.51 238.734 148.575 238.618 148.66 238.519C148.745 238.419 148.85 238.337 148.967 238.278C149.084 238.218 149.211 238.183 149.342 238.173C149.473 238.163 149.604 238.178 149.729 238.219C149.853 238.26 149.969 238.325 150.068 238.41L155.854 243.369L169.318 228.638C169.406 228.541 169.513 228.463 169.632 228.407C169.751 228.352 169.879 228.32 170.01 228.314C170.141 228.308 170.272 228.328 170.395 228.373C170.519 228.418 170.632 228.486 170.729 228.575C170.826 228.663 170.904 228.77 170.96 228.889C171.015 229.008 171.047 229.136 171.053 229.267C171.059 229.398 171.039 229.529 170.994 229.652C170.949 229.776 170.881 229.889 170.792 229.986L156.676 245.431C156.583 245.533 156.469 245.615 156.342 245.671C156.215 245.727 156.078 245.755 155.939 245.755Z" fill="white"/>
<path d="M159.737 123.136C159.624 123.136 159.515 123.092 159.435 123.012C159.355 122.932 159.31 122.823 159.31 122.71V93.0074C159.31 92.8942 159.355 92.7857 159.435 92.7057C159.515 92.6257 159.624 92.5808 159.737 92.5808C159.85 92.5808 159.958 92.6257 160.038 92.7057C160.118 92.7857 160.163 92.8942 160.163 93.0074V122.71C160.163 122.823 160.118 122.932 160.038 123.012C159.958 123.092 159.85 123.136 159.737 123.136Z" fill="#292A2E"/>
<path d="M174.588 108.285H144.886C144.773 108.285 144.664 108.24 144.584 108.16C144.504 108.08 144.459 107.972 144.459 107.859C144.459 107.746 144.504 107.637 144.584 107.557C144.664 107.477 144.773 107.432 144.886 107.432H174.588C174.701 107.432 174.81 107.477 174.89 107.557C174.97 107.637 175.015 107.746 175.015 107.859C175.015 107.972 174.97 108.08 174.89 108.16C174.81 108.24 174.701 108.285 174.588 108.285Z" fill="#292A2E"/>
<path d="M72.8524 126.976L77.6138 119.57C77.7185 119.407 77.8558 119.268 78.0172 119.161C78.1786 119.054 78.3604 118.982 78.5512 118.95C78.7419 118.917 78.9373 118.925 79.125 118.972C79.3127 119.019 79.4885 119.104 79.6413 119.223C79.9164 119.451 80.0971 119.773 80.1483 120.127C80.1995 120.48 80.1177 120.84 79.9186 121.137L78.8978 122.726L84.4006 119.204C85.0054 118.802 86.0049 118.695 86.4114 119.404C86.5857 119.666 86.6659 119.98 86.6389 120.294C86.6119 120.608 86.4794 120.903 86.263 121.132C86.2681 121.137 86.2727 121.142 86.2766 121.147C86.2792 121.152 86.2812 121.157 86.2826 121.163L87.2159 120.542C87.3888 120.428 87.5851 120.353 87.7905 120.324C87.9959 120.294 88.2053 120.311 88.4034 120.373C88.6014 120.435 88.7832 120.54 88.9354 120.681C89.0876 120.822 89.2064 120.996 89.2831 121.188C89.3979 121.494 89.4042 121.83 89.3008 122.141C89.1975 122.451 88.9908 122.716 88.7153 122.892L88.3182 123.156C88.321 123.171 88.321 123.186 88.3182 123.201C88.6278 123.085 88.9686 123.083 89.2796 123.195C89.5906 123.307 89.8516 123.526 90.016 123.813C90.1865 124.132 90.2304 124.504 90.1389 124.854C90.0474 125.204 89.8273 125.507 89.5224 125.702L88.5362 126.358C88.5567 126.358 88.5767 126.363 88.5947 126.373C88.6127 126.383 88.628 126.397 88.6394 126.414C88.6523 126.435 88.6587 126.459 88.6577 126.483C88.9621 126.457 89.2669 126.531 89.5251 126.694C89.7834 126.857 89.9809 127.101 90.0872 127.387C90.1927 127.691 90.1928 128.021 90.0874 128.324C89.9821 128.627 89.7774 128.886 89.5066 129.059L81.1859 134.589C80.0219 135.363 78.6533 135.771 77.2555 135.762C75.8578 135.753 74.4946 135.327 73.3409 134.537C72.3463 133.857 71.6562 132.816 71.4173 131.634C71.1783 130.453 71.4093 129.225 72.0611 128.212L72.8524 126.976Z" fill="#E98862"/>
<g opacity="0.2">
<path d="M80.8352 124.644C80.8539 124.672 80.8828 124.691 80.9158 124.698C80.9488 124.705 80.9831 124.698 81.0114 124.68L86.2407 121.324C86.2694 121.306 86.2896 121.277 86.2968 121.244C86.304 121.21 86.2977 121.175 86.2793 121.147C86.2609 121.118 86.2318 121.098 86.1985 121.091C86.1651 121.083 86.1303 121.09 86.1016 121.108L80.8723 124.464C80.8581 124.473 80.8457 124.484 80.8361 124.498C80.8264 124.512 80.8196 124.528 80.8159 124.544C80.8123 124.561 80.812 124.578 80.815 124.594C80.818 124.611 80.8243 124.627 80.8335 124.641L80.8352 124.644Z" fill="#0C0C0C"/>
</g>
<g opacity="0.2">
<path d="M82.2497 126.992C82.2684 127.02 82.2974 127.04 82.3304 127.047C82.3634 127.053 82.3977 127.047 82.4259 127.029L88.2618 123.281C88.2762 123.272 88.2885 123.26 88.2982 123.246C88.3079 123.232 88.3148 123.217 88.3184 123.2C88.322 123.184 88.3223 123.167 88.3193 123.15C88.3162 123.133 88.3099 123.117 88.3007 123.103C88.2814 123.075 88.2523 123.056 88.2193 123.049C88.1863 123.042 88.1518 123.048 88.1228 123.065L82.2856 126.811C82.2713 126.82 82.2589 126.831 82.2492 126.845C82.2395 126.859 82.2326 126.875 82.229 126.891C82.2254 126.908 82.2251 126.925 82.2282 126.942C82.2312 126.958 82.2375 126.974 82.2468 126.988L82.2497 126.992Z" fill="#0C0C0C"/>
</g>
<g opacity="0.2">
<path d="M83.7691 129.542C83.7878 129.57 83.8167 129.589 83.8496 129.596C83.8824 129.603 83.9167 129.596 83.9448 129.578L88.6004 126.592C88.6291 126.574 88.6493 126.545 88.6565 126.511C88.6638 126.478 88.6575 126.443 88.639 126.414C88.6206 126.386 88.5915 126.366 88.5582 126.358C88.5249 126.351 88.4901 126.357 88.4614 126.376L83.8058 129.362C83.7915 129.371 83.7792 129.383 83.7695 129.397C83.7599 129.411 83.753 129.426 83.7495 129.443C83.7459 129.459 83.7456 129.476 83.7487 129.493C83.7518 129.51 83.7581 129.526 83.7674 129.54L83.7691 129.542Z" fill="#0C0C0C"/>
</g>
<path d="M31.7578 114.963L53.7906 150.349L39.9496 148.098L72.1583 123.212L83.895 138.401L51.6863 163.288C50.6895 164.058 49.5507 164.625 48.3351 164.955C47.1194 165.285 45.8505 165.372 44.6011 165.212C43.3516 165.052 42.1459 164.647 41.0528 164.021C39.9598 163.395 39.0007 162.559 38.2306 161.562C38.1737 161.488 38.1168 161.413 38.0599 161.337L37.8441 161.038L13.4839 127.211L31.7578 114.963Z" fill="#367CFF"/>
<path d="M25.5337 321.303C25.5337 321.303 27.1197 329.525 34.8176 329.983C42.5155 330.441 40.8459 336.573 40.8459 336.573H11.4321V321.877L25.5337 321.303Z" fill="#0095FF"/>
<path d="M16.4605 171.33C16.4605 171.33 16.5531 168.859 16.5334 174.465C16.4605 195.377 16.0975 219.263 15.2111 233.24C13.7859 255.709 10.1315 326.55 10.1315 326.55L29.4611 326.388L48.1961 170.481L16.4605 171.33Z" fill="#262626"/>
<path d="M38.2891 195.99C38.2891 195.99 39.0902 211.165 39.2386 214.728C39.5824 222.967 39.7014 231.497 39.7014 241.17L42.7484 215.814C42.7484 215.814 40.5187 207.87 38.2891 195.99Z" fill="#0A0A0A"/>
<path d="M59.9459 321.303C59.9459 321.303 61.5319 329.525 69.2294 329.983C76.9269 330.441 75.2577 336.573 75.2577 336.573H45.8418V321.877L59.9459 321.303Z" fill="#0095FF"/>
<path d="M69.305 172.954C69.305 172.954 71.0172 244.425 70.7664 247.918L63.5778 326.009L44.5677 326.36L46.4203 245.093C46.4203 245.093 45.1133 222.676 39.6971 201.86C36.9259 191.176 35.2581 180.237 34.7198 169.213L69.305 172.954Z" fill="#262626"/>
<path d="M72.0261 133.283C71.6277 137.967 69.6885 167.185 69.305 172.954H16.4819C16.1833 167.75 14.8439 145.001 13.7122 134.827C12.6321 125.118 12.4858 120.093 14.0393 117.223C16.5779 112.531 21.5406 109.985 26.2704 109.345C29.1587 108.954 33.5025 108.674 33.5025 108.674C33.5025 108.674 33.8698 116.115 42.6401 116.528C54.5785 117.091 53.7817 108.674 53.8406 108.674C55.7746 108.674 65.5388 109.584 68.0292 111.5C73.3511 115.594 72.8724 123.359 72.0261 133.283Z" fill="#0095FF"/>
<path d="M58.6826 108.942C58.6271 108.935 57.1043 114.671 45.208 113.778C36.9731 113.162 34.9652 107.556 34.7762 107.556C35.6644 107.367 37.1062 107.172 37.5003 106.961C38.1816 106.647 38.7813 106.18 39.2525 105.596C39.7238 105.013 40.0539 104.328 40.2172 103.596C40.5891 102.173 40.7785 96.6929 40.7785 93.9437L53.4494 96.791C53.2728 99.8922 52.0366 107.082 56.3697 108.355C57.091 108.564 57.8674 108.758 58.6826 108.942Z" fill="#E98862"/>
<path d="M53.0117 102.888C48.0161 103.282 41.5988 101.173 40.3801 94.5084L39.2804 88.4938C38.0613 81.829 40.5738 75.7858 46.8491 74.6383C53.1243 73.4904 58.8029 78.0355 60.0216 84.7003L60.5087 87.3629C60.9762 89.9232 61.9245 102.185 53.0117 102.888Z" fill="#E98862"/>
<path d="M57.6434 96.7688C56.7476 92.2634 56.3356 89.2578 56.3833 86.0862C57.6464 83.871 57.3141 81.3282 57.027 80.2298C57.8968 80.7822 58.9195 81.0443 59.9478 80.9785C59.9478 80.9785 57.8576 72.5959 50.7598 70.3402C49.4545 69.8322 46.1213 69.1906 41.6956 69.7976C37.9312 70.3138 28.6524 73.1283 27.3266 83.5758V83.5818C27.2839 83.9282 26.392 93.5534 24.6157 98.1706C22.2269 104.378 18.8758 106.307 18.9607 113.47C19.069 122.601 41.2704 123.555 46.2237 123.22C56.4401 122.531 62.1429 119.172 62.2167 112.532C62.2986 105.092 59.4376 105.783 57.6434 96.7688Z" fill="#0A0A0A"/>
<path d="M143.205 66.2592H74.6622C73.4949 66.2592 72.5486 67.2055 72.5486 68.3729V124.557C72.5486 125.725 73.4949 126.671 74.6622 126.671H143.205C144.372 126.671 145.318 125.725 145.318 124.557V68.3729C145.318 67.2055 144.372 66.2592 143.205 66.2592Z" fill="#367CFF"/>
<path opacity="0.3" d="M143.205 66.2592H74.6622C73.4949 66.2592 72.5486 67.2055 72.5486 68.3729V124.557C72.5486 125.725 73.4949 126.671 74.6622 126.671H143.205C144.372 126.671 145.318 125.725 145.318 124.557V68.3729C145.318 67.2055 144.372 66.2592 143.205 66.2592Z" fill="white"/>
<path opacity="0.8" d="M97.9283 90.2389C100.836 90.2389 103.194 87.8814 103.194 84.9733C103.194 82.0652 100.836 79.7077 97.9283 79.7077C95.0202 79.7077 92.6627 82.0652 92.6627 84.9733C92.6627 87.8814 95.0202 90.2389 97.9283 90.2389Z" fill="white"/>
<path opacity="0.5" d="M105.179 109.592L120.443 92.5633C121.396 91.4999 122.73 90.8552 124.155 90.769C125.581 90.6829 126.982 91.1622 128.057 92.103L145.319 107.217V126.671H124.452" fill="white"/>
<path opacity="0.8" d="M124.452 126.671L91.3527 97.3392C90.3746 96.4724 89.1165 95.9879 87.8098 95.9747C86.503 95.9616 85.2354 96.4206 84.24 97.2675L72.5486 107.217V126.671" fill="white"/>
<path d="M143.204 126.992H74.6623C74.0178 126.991 73.4001 126.734 72.9444 126.279C72.4886 125.823 72.2321 125.205 72.2308 124.561V68.3729C72.2316 67.728 72.488 67.1098 72.9437 66.6537C73.3995 66.1975 74.0175 65.9406 74.6623 65.9393H143.204C143.849 65.9401 144.468 66.1967 144.924 66.6529C145.381 67.1091 145.637 67.7276 145.638 68.3729V124.557C145.638 125.203 145.381 125.822 144.925 126.278C144.468 126.735 143.85 126.992 143.204 126.992ZM74.6623 66.5791C74.1871 66.5803 73.7317 66.7697 73.3959 67.1059C73.0601 67.4421 72.8713 67.8977 72.8707 68.3729V124.557C72.8717 125.032 73.0608 125.487 73.3966 125.823C73.7323 126.159 74.1874 126.348 74.6623 126.349H143.204C143.679 126.349 144.135 126.16 144.471 125.824C144.808 125.488 144.997 125.033 144.998 124.557V68.3729C144.998 67.8973 144.808 67.4414 144.472 67.1051C144.136 66.7688 143.68 66.5797 143.204 66.5791H74.6623Z" fill="#292A2E"/>
<path d="M114.683 126.976L119.445 119.57C119.549 119.407 119.687 119.268 119.848 119.161C120.009 119.054 120.191 118.982 120.382 118.95C120.573 118.917 120.768 118.925 120.956 118.972C121.143 119.019 121.319 119.104 121.472 119.223C121.747 119.451 121.928 119.773 121.979 120.127C122.031 120.48 121.949 120.84 121.75 121.137L120.729 122.726L126.231 119.204C126.836 118.802 127.836 118.695 128.242 119.404C128.416 119.666 128.497 119.98 128.47 120.294C128.443 120.608 128.31 120.903 128.094 121.132C128.099 121.137 128.104 121.142 128.108 121.147C128.11 121.152 128.112 121.157 128.113 121.163L129.047 120.542C129.22 120.428 129.416 120.353 129.621 120.324C129.827 120.294 130.036 120.311 130.234 120.373C130.432 120.435 130.614 120.54 130.766 120.681C130.918 120.822 131.037 120.996 131.114 121.188C131.229 121.494 131.235 121.83 131.132 122.141C131.028 122.451 130.822 122.716 130.546 122.892L130.149 123.156C130.152 123.171 130.152 123.186 130.149 123.201C130.458 123.085 130.799 123.083 131.11 123.195C131.421 123.307 131.682 123.526 131.846 123.813C132.017 124.132 132.061 124.504 131.969 124.854C131.878 125.204 131.658 125.507 131.353 125.702L130.366 126.358C130.387 126.358 130.407 126.363 130.425 126.373C130.443 126.383 130.458 126.397 130.47 126.414C130.483 126.435 130.489 126.459 130.488 126.483C130.792 126.457 131.097 126.531 131.355 126.694C131.614 126.857 131.811 127.101 131.918 127.387C132.023 127.691 132.023 128.021 131.918 128.324C131.813 128.627 131.608 128.886 131.337 129.059L123.016 134.589C121.852 135.363 120.484 135.771 119.086 135.762C117.688 135.753 116.325 135.327 115.171 134.537C114.177 133.857 113.487 132.816 113.248 131.634C113.009 130.453 113.24 129.225 113.891 128.212L114.683 126.976Z" fill="#E98862"/>
<g opacity="0.2">
<path d="M122.664 124.644C122.683 124.672 122.712 124.691 122.745 124.698C122.778 124.705 122.812 124.698 122.84 124.68L128.07 121.324C128.084 121.315 128.096 121.303 128.106 121.29C128.116 121.276 128.122 121.26 128.126 121.244C128.129 121.227 128.13 121.21 128.127 121.193C128.124 121.177 128.118 121.161 128.108 121.147C128.099 121.133 128.087 121.12 128.074 121.111C128.06 121.101 128.044 121.094 128.028 121.091C128.011 121.087 127.994 121.087 127.977 121.09C127.961 121.093 127.945 121.099 127.931 121.108L122.701 124.464C122.687 124.473 122.675 124.484 122.665 124.498C122.655 124.512 122.649 124.528 122.645 124.544C122.641 124.561 122.641 124.578 122.644 124.594C122.647 124.611 122.653 124.627 122.663 124.641L122.664 124.644Z" fill="#0C0C0C"/>
</g>
<g opacity="0.2">
<path d="M124.081 126.992C124.099 127.02 124.128 127.04 124.161 127.047C124.194 127.053 124.229 127.047 124.257 127.029L130.093 123.281C130.107 123.272 130.119 123.26 130.129 123.246C130.139 123.232 130.146 123.217 130.149 123.2C130.153 123.184 130.153 123.167 130.15 123.15C130.147 123.133 130.141 123.117 130.132 123.103C130.112 123.075 130.083 123.056 130.05 123.049C130.017 123.042 129.983 123.048 129.954 123.065L124.118 126.809C124.103 126.818 124.091 126.83 124.081 126.844C124.072 126.858 124.065 126.874 124.061 126.89C124.058 126.907 124.057 126.924 124.06 126.94C124.063 126.957 124.07 126.973 124.079 126.987L124.081 126.992Z" fill="#0C0C0C"/>
</g>
<g opacity="0.2">
<path d="M125.6 129.542C125.619 129.57 125.648 129.589 125.68 129.596C125.713 129.603 125.748 129.596 125.776 129.578L130.431 126.592C130.46 126.574 130.48 126.545 130.487 126.511C130.495 126.478 130.488 126.443 130.47 126.414C130.452 126.386 130.422 126.366 130.389 126.358C130.356 126.351 130.321 126.357 130.292 126.376L125.637 129.362C125.623 129.371 125.61 129.383 125.601 129.397C125.591 129.41 125.584 129.426 125.581 129.443C125.577 129.459 125.577 129.476 125.58 129.493C125.583 129.51 125.589 129.526 125.598 129.54L125.6 129.542Z" fill="#0C0C0C"/>
</g>
<path d="M69.5878 113.279L95.328 149.935L81.7818 148.098L113.99 123.212L125.727 138.401L93.518 163.288C91.5282 164.826 89.014 165.521 86.5168 165.223C84.0195 164.926 81.7391 163.659 80.1664 161.697L79.9701 161.452L51.9905 126.477L69.5878 113.279Z" fill="#0095FF"/>
<path d="M0.426571 337H281.17C281.283 337 281.391 336.955 281.471 336.875C281.551 336.795 281.596 336.687 281.596 336.573C281.596 336.46 281.551 336.352 281.471 336.272C281.391 336.192 281.283 336.147 281.17 336.147H0.426571C0.313437 336.147 0.204937 336.192 0.12494 336.272C0.0449422 336.352 0 336.46 0 336.573C0 336.687 0.0449422 336.795 0.12494 336.875C0.204937 336.955 0.313437 337 0.426571 337Z" fill="#262626"/>
</svg>
