<svg width="26" height="26" viewBox="0 0 26 26" fill="none" xmlns="http://www.w3.org/2000/svg">
<g clip-path="url(#clip0_4_123)">
<path d="M23.1111 0H2.88889C2.12271 0 1.38791 0.304364 0.846136 0.846136C0.304364 1.38791 0 2.12271 0 2.88889L0 16.6111H26V2.88889C26 2.12271 25.6956 1.38791 25.1539 0.846136C24.6121 0.304364 23.8773 0 23.1111 0V0Z" fill="#FFCC4D"/>
<path d="M23.1934 13.5315C24.3396 13.2058 24.3396 12.7032 23.1942 12.3767L22.7904 12.2655L22.3889 12.1478V12.1514L20.2656 11.5079L21.9433 10.1111H21.9332L22.2892 9.87854L22.6482 9.61927C23.5806 8.88043 23.3762 8.4016 22.1939 8.53738L21.7346 8.60166L21.2781 8.66666H21.2767L19.1252 8.91149L20.4035 6.61482L20.6267 6.21182C21.2059 5.17182 20.8296 4.7941 19.7903 5.37188L19.3873 5.57554L18.9858 5.77777H18.9843L17.0878 6.85316L17.3333 4.72549V4.72332L17.3911 4.26688L17.4467 3.8061C17.5825 2.62599 17.0914 2.42304 16.3518 3.35616L16.0673 3.71654L14.4372 5.77488L13.8457 3.69416L13.8443 3.69054L13.5929 2.80582C13.2672 1.65966 12.7335 1.65966 12.4071 2.80582L12.2814 3.24782L12.1557 3.69054L11.5628 5.77488L10.2187 4.07766L10.218 4.07693L9.93272 3.71654L9.646 3.35471C8.90717 2.42304 8.41533 2.62743 8.55183 3.80899L8.60528 4.26688L8.658 4.72332V4.72404L8.90789 6.87555L6.61339 5.59721L6.21111 5.37332C5.17039 4.79338 4.79339 5.17038 5.37261 6.2111L5.5965 6.61266L6.87483 8.90716L4.72333 8.65727H4.72261L4.26617 8.60454L3.80755 8.5511C2.626 8.4146 2.42233 8.90643 3.35328 9.64527L3.71511 9.93199L4.0755 10.2173L4.07622 10.218L5.77344 11.562L3.69055 12.1557L3.24856 12.2814L2.80655 12.407C1.66039 12.7335 1.66039 13.2665 2.80655 13.5929L3.69128 13.8443L3.69417 13.8457L5.77489 14.4372L3.71583 16.068L3.35544 16.354C2.42233 17.0928 2.62528 17.5854 3.80539 17.4496L4.26617 17.3918L4.72261 17.3333H4.72405L6.85317 17.0878L5.77778 18.9843V18.9858L5.57555 19.3873L5.36178 19.7903C4.784 20.8303 5.16606 21.2059 6.20606 20.6267L6.6105 20.4035L8.91078 19.1252L8.66667 21.2767V21.2781L8.60889 21.7345L8.55328 22.1932C8.41678 23.3754 8.90789 23.5784 9.64672 22.646L9.93272 22.2849L10.218 21.9238L11.5628 20.2251L12.155 22.3087V22.3094L12.2807 22.7514L12.4071 23.1942C12.7335 24.3396 13.2051 24.3396 13.5316 23.1934L13.7222 22.3094V22.3065L14.3758 20.2251L15.7517 21.9238L16.0521 22.2849L16.3461 22.646C17.0842 23.5777 17.5811 23.3754 17.4446 22.1946L17.3882 21.7345L17.3333 21.2774V21.2752L17.0878 19.1468L18.9829 20.2222H18.9843L19.3866 20.4244L19.7896 20.6375C20.8296 21.2174 21.2073 20.8339 20.6274 19.7947L20.4252 19.3895L20.2222 18.9872V18.9858L19.1468 17.0878L21.2752 17.3333H21.2774L21.7346 17.3911L22.1946 17.4467C23.3754 17.5832 23.5777 17.0914 22.646 16.3525L22.2849 16.0665L21.9238 15.7813L20.2251 14.3751L22.3066 13.7222H22.3094L23.1934 13.5315Z" fill="#F4900C"/>
<path d="M13 19.955C16.8411 19.955 19.955 16.8412 19.955 13C19.955 9.15887 16.8411 6.04501 13 6.04501C9.15886 6.04501 6.045 9.15887 6.045 13C6.045 16.8412 9.15886 19.955 13 19.955Z" fill="#FFE8B6"/>
<path d="M0 15.8889V23.1111C0 23.8773 0.304364 24.6121 0.846136 25.1539C1.38791 25.6956 2.12271 26 2.88889 26H23.1111C23.8773 26 24.6121 25.6956 25.1539 25.1539C25.6956 24.6121 26 23.8773 26 23.1111V15.8889H0Z" fill="#226699"/>
<path d="M15.8889 20.2222C14.4596 20.2222 13.5417 19.6813 13 19.1844C12.4583 19.6813 11.5404 20.2222 10.1111 20.2222C7.52772 20.2222 6.61411 18.4542 6.57583 18.3784C6.49404 18.2082 6.48216 18.0127 6.54274 17.8339C6.60332 17.655 6.73153 17.507 6.89991 17.4215C7.06829 17.3361 7.26345 17.32 7.44357 17.3766C7.62369 17.4333 7.77445 17.5583 7.86355 17.7248C7.89678 17.784 8.46589 18.7778 10.1111 18.7778C11.7708 18.7778 12.3356 17.7667 12.3587 17.7233C12.4865 17.4864 12.7219 17.3449 13.0079 17.3384C13.1402 17.3394 13.2695 17.3768 13.382 17.4463C13.4944 17.5158 13.5856 17.6149 13.6457 17.7327C13.6644 17.7667 14.2285 18.7778 15.8889 18.7778C17.5493 18.7778 18.1133 17.7667 18.1364 17.7233C18.3242 17.3759 18.7568 17.2373 19.1078 17.42C19.2762 17.5058 19.4039 17.6547 19.4631 17.8341C19.5224 18.0136 19.5084 18.2092 19.4242 18.3784C19.3866 18.4542 18.4723 20.2222 15.8889 20.2222ZM18.7778 24.5555C17.3485 24.5555 16.4306 24.0146 15.8889 23.5177C15.3472 24.0146 14.4293 24.5555 13 24.5555C11.5707 24.5555 10.6528 24.0146 10.1111 23.5177C9.56944 24.0146 8.6515 24.5555 7.22222 24.5555C4.63883 24.5555 3.72522 22.7875 3.68694 22.7117C3.60516 22.5415 3.59328 22.3461 3.65385 22.1672C3.71443 21.9884 3.84264 21.8403 4.01102 21.7549C4.1794 21.6694 4.37456 21.6533 4.55468 21.71C4.7348 21.7666 4.88556 21.8916 4.97467 22.0581C5.00789 22.1173 5.577 23.1111 7.22222 23.1111C8.88189 23.1111 9.44667 22.1 9.46978 22.0567C9.53322 21.9399 9.62706 21.8425 9.74137 21.7747C9.85567 21.7069 9.98617 21.6714 10.1191 21.6717C10.2513 21.6728 10.3806 21.7101 10.4931 21.7796C10.6055 21.8492 10.6968 21.9482 10.7568 22.066C10.7756 22.1 11.3403 23.1111 13 23.1111C14.6604 23.1111 15.2244 22.1 15.2476 22.0567C15.3754 21.8198 15.6303 21.6659 15.8968 21.6717C16.029 21.6728 16.1584 21.7101 16.2709 21.7796C16.3833 21.8492 16.4745 21.9482 16.5346 22.066C16.5533 22.1 17.1174 23.1111 18.7778 23.1111C20.4382 23.1111 21.0022 22.1 21.0253 22.0567C21.2131 21.7093 21.6464 21.5706 21.9967 21.7533C22.1651 21.8392 22.2928 21.988 22.352 22.1675C22.4112 22.3469 22.3972 22.5425 22.3131 22.7117C22.2755 22.7875 21.3612 24.5555 18.7778 24.5555Z" fill="#3B88C3"/>
</g>
<defs>
<clipPath id="clip0_4_123">
<rect width="26" height="26" fill="white"/>
</clipPath>
</defs>
</svg>
