<svg width="30" height="30" viewBox="0 0 30 30" fill="none" xmlns="http://www.w3.org/2000/svg">
<path d="M21.0754 19.217C21.1394 19.2382 21.2018 19.2638 21.2621 19.2938L23.367 20.3392C24.9786 21.1396 26.875 19.9755 26.875 18.1857V12.2627C26.875 10.3716 24.7808 9.21875 23.1663 10.221L21.3092 11.3739C21.2177 11.4307 21.133 11.4976 21.0566 11.5734" stroke="#0095FF" stroke-width="1.5"/>
<path d="M21.0754 19.217C21.1394 19.2382 21.2018 19.2638 21.2621 19.2938L23.367 20.3392C24.9786 21.1396 26.875 19.9755 26.875 18.1857V12.2627C26.875 10.3716 24.7808 9.21875 23.1663 10.221L21.3092 11.3739C21.2177 11.4307 21.133 11.4976 21.0566 11.5734" stroke="#0095FF" stroke-width="1.5"/>
<path d="M20.8291 19.1355C21.3877 16.6707 21.4407 14.1221 20.988 11.6416L20.8291 19.1355ZM3.60312 19.3024L3.68018 19.6447C4.14684 21.7187 5.75561 23.3515 7.83316 23.8595C10.6652 24.5521 13.6565 24.5441 16.4886 23.8516C18.54 23.35 20.1701 21.7582 20.6862 19.7234L20.7175 19.6001C21.4835 16.5805 21.4835 13.4195 20.7175 10.3999L20.6862 10.2767C20.1701 8.24179 18.54 6.65006 16.4886 6.14839C13.6565 5.45584 10.6652 5.44792 7.83316 6.14047C5.7556 6.64852 4.14684 8.28121 3.68018 10.3552L3.60312 10.6977C2.96563 13.531 2.96563 16.469 3.60312 19.3024Z" stroke="#363853" stroke-width="1.5"/>
</svg>
